<svg width="100" height="100" viewBox="0 0 100 100" fill="none" xmlns="http://www.w3.org/2000/svg">
<rect width="100" height="100" rx="3" fill="#D9D9D9"/>
<path d="M47.5714 63.75C47.5714 65.1328 48.6566 66.25 49.9999 66.25C51.3432 66.25 52.4285 65.1328 52.4285 63.75V52.5H63.3571C64.7004 52.5 65.7856 51.3828 65.7856 50C65.7856 48.6172 64.7004 47.5 63.3571 47.5H52.4285V36.25C52.4285 34.8672 51.3432 33.75 49.9999 33.75C48.6566 33.75 47.5714 34.8672 47.5714 36.25V47.5H36.6428C35.2995 47.5 34.2142 48.6172 34.2142 50C34.2142 51.3828 35.2995 52.5 36.6428 52.5H47.5714V63.75Z" fill="#C0C0C0"/>
</svg>
