<svg width="68" height="68" viewBox="0 0 68 68" fill="none" xmlns="http://www.w3.org/2000/svg">
<circle cx="34" cy="34" r="34" fill="#D9D9D9"/>
<g clip-path="url(#clip0_322_7)">
<mask id="mask0_322_7" style="mask-type:alpha" maskUnits="userSpaceOnUse" x="16" y="14" width="35" height="40">
<path d="M33.5 34C39.0234 34 43.5 29.5234 43.5 24C43.5 18.4766 39.0234 14 33.5 14C27.9766 14 23.5 18.4766 23.5 24C23.5 29.5234 27.9766 34 33.5 34ZM29.9297 37.75C22.2344 37.75 16 43.9844 16 51.6797C16 52.9609 17.0391 54 18.3203 54H48.6797C49.9609 54 51 52.9609 51 51.6797C51 43.9844 44.7656 37.75 37.0703 37.75H29.9297Z" fill="black"/>
</mask>
<g mask="url(#mask0_322_7)">
<rect x="11" y="14" width="49" height="40" fill="#B7B7B7"/>
</g>
</g>
<defs>
<clipPath id="clip0_322_7">
<rect width="35" height="40" fill="white" transform="translate(16 14)"/>
</clipPath>
</defs>
</svg>
